<?xml version="1.0" encoding="UTF-8"?>
<svg id="Layer_1" xmlns="http://www.w3.org/2000/svg" viewBox="0 0 2082.05 877.21">
<defs>
<style>
.cls-1{fill:#a79280;stroke-width:0px;}</style>
</defs>
<path class="cls-1" d="m2051.64,260.67c.12-.98.18-2.21.21-3.58l-.21,3.58Z"/>
<path class="cls-1" d="m1845.01,25.28c4.67-.02,6.63-.12,6.86-.21-4.34.06-7.9.13-6.86.21Z"/>
<path class="cls-1" d="m1740.19,24.18c2.25.02,4.14.05,6.18.07-2.36-.09-4.73-.14-6.18-.07Z"/>
<path class="cls-1" d="m2051.85,257.09l.56-9.21c-.58-.64-.43,4.72-.56,9.21Z"/>
<path class="cls-1" d="m2053.28,409v2.8c.2.82.45,1.6.72,2.32l-.72-5.12Z"/>
<path class="cls-1" d="m2053.56,525.57c.07-2.64-1.44-3.55-2.09-4.56.62,1.49.91,3.44,1.03,5.75.29.04.63-.3,1.06-1.19Z"/>
<path class="cls-1" d="m2050.91,710.43c.06.99.15,2.43.21,3.28l-.21-3.28Z"/>
<path class="cls-1" d="m2053.61,325.55c.22-.2.42-.61.54-1.06-.19,0-.37.42-.54,1.06Z"/>
<path class="cls-1" d="m1548.37,23.1c.37,0,.5,0,.85.02,5.05-.1,2.19-.08-.85-.02Z"/>
<path class="cls-1" d="m18.31,160.3c1.34-11.2,1.72,18.22,3.22,1.36-.59,1.57-2.34-15.32-3.22-1.36Z"/>
<path class="cls-1" d="m1110.9,23.98c-.15-.09-1.17-.19-4.51-.37.9.15,2.67.26,4.51.37Z"/>
<path class="cls-1" d="m1435.66,24.81l-8.15-.11c3.23.08,5.85.1,8.15.11Z"/>
<path class="cls-1" d="m931.83,24.73c1.07.02,2.18.05,3.6.07-1.35-.04-2.53-.06-3.6-.07Z"/>
<path class="cls-1" d="m931.83,24.73c-2.26-.05-4.27-.08-8.38,0,.56.04,1.12.07,1.84.1,1.6-.08,3.6-.14,6.54-.1Z"/>
<path class="cls-1" d="m757.5,24.8c.94.06,2.19.11,3.28.17,1.76-.01,3.82-.03,5.64-.05l-8.92-.12Z"/>
<path class="cls-1" d="m1378.43,853.36c1.27.04,2.77.07,4.58.12-1.55-.04-3.06-.08-4.58-.12Z"/>
<path class="cls-1" d="m2055.28,44.4c-.06-2.98-.17-5.89-.31-8.76-.16-3.84-.31-7.61-.47-11.31-4.82.06-9.6.12-14.32.17-3.03.05-6.03.11-9,.16-5.94.1-11.78.17-17.53.19-11.49.04-22.64-.11-33.61-.67-13.73.7,28.19.49,15.91,1.31-23.88-.13-48.76-1.57-56.24-1.57-32.71-.55-30.52,1.46-64.75,1.08,4.38.36,8.51,1.31-17.07,1.64-23.9-.13-29.37-1.49-14.29-1.78,5.73-.03,8.5.08,8.25.2,7.72-.13,17.85-.28,8.39-.67l-3.1.36c-11.86-.36-44.73-.33-37.01-.91-15.39.29-10.15.51.01.68-27.24-.37-44.23.05-73.79-.28,5.02.2,9.64.61,4.64.61-46.27-.44-20.37.68-51.73.83-17.81-.54,6.38-1.3-25.18-.84-19.27-.37-4.08-.94,3.58-1.23-28.76.69-53.73-.45-70.15-.58l15.15-.29c-9.06.17-16.48.17-24.03.16l8.65.71c-8.89-.12-16.42-.13-16.26-.42-9.16.47,7.01,1.18-11.17,1.82-11.86-.36-36.11.39-40.2-.56,33.54.29,3.42-.71,19.99-1.02-4.44.01-9.42-.02-14.98-.09-1.34-.11,1.26-.2,3.69-.25-35.68-.84-16.4,1.07-53.38,1.05,4.7-.53-8.57-1.01-14.61-.9,14.9.01,7.13.89-6.54,1.3-23.71-.41-25.77.31-38.19.26l14.17.19c-4.8.53-16.66.46-33.19.63-.44-.13.84-.21,2.64-.25-17.2.32-37.92-1.11-60.59-.55-11.86-.36-1.15-1-11.56-1.24-28.68.69-31.06-.73-61.21-.16,8.69.72,10.21.54-11.02,1.24l49.56-.5-31.8,1.04c14.96.01,31.56-.45,40.52-.33-15.15.58-13.6.41-6.44,1-20.47-1.07-40.57.63-64.23-.1l.72-1.77c-35.57-.79-63.19.91-109.37.46l14.84.31c-6.19.7-28.51.1-43.47.38,1.39-.59-7.96-.81-14.34-1.18.78.44-33.8-.04-38,1.14l-20.62-.78c-37.29-.32-42.56,1.69-78.4,1.49,10.8-.64-5.49-1.06,18.52-1.52-11.97,0-22.73-.11-22.92.3-6.99-.37-33.19.8-44.19.24-5.05.26-6.7.88-20.13.83-.87-.07-.69-.16-.39-.22-2.96.24-19.58.38-8.85.98-36.87-1.85-103.04.13-135.14-1.45-26.12.2-57.59.39-81.3.43,1.52-.18.08-.3,4.56-.23-32.71-.55-20.11,1.7-57.33,1.09-19.01-.96,19.77-.52,7.91-.88-5.16-1.95-44.92.27-69.97-.87l6.06-.11c-19.14-.66-46.71.74-77.99.6,0,0,1.52-.17.18-.29-21.39.99-61.89,1.32-91.98,1.6,9.36-.76,13.67-.4,7.96-1.18-13.49.11,3.95,1.24-22.97,1.46-8.75-.42-28.18-.78-30.76-1.61l25.4-.04c-13.01-1.07-32.88.04-46.26-.15l1.71-.47c-38.92.15-39.46,1.33-81.3,1.25l4.32.35c-22.86,1.17-19.17-.66-41.97.21l-6.9-1.18c-15.09.29-52.84,1.14-79.89,1.37,15.33-.88,46.98-1.33,66.57-1.85-14.96,0-50.82.09-58.61.67,6.03-.11,13.62-.4,19.57-.22-18.35.93-42.48,1.39-72.28,1.37,1.73-.75-5.98-1.07-17.89-1.23-5.95-.08-12.96-.11-20.36-.14-8.79-.03-18.05-.06-27.01-.09-.02,1.67-.05,3.33-.07,4.96-.03,1.35-.06,2.69-.09,3.99-.07,2.11-.17,4.12-.29,5.98-.25,3.73-.61,6.86-1.16,8.95,1.51,29.59-.65,58.7-.4,93.17,3.18-12.23.09,10.06,3.36,7.95.21,7.97.16,11.05-.05,11.79l.14-1.69c-.06.72-.1,1.13-.15,1.74h0l-1.95,24.3c-.95,5.77-.72-7.64-1.45-6.9-.25,17.58-1.39,7.38-2.25,19.01,1.17-2.38,1.67,6.11,1.23,16.13l1.51-14.11c1.74,24.57-2.74,21.23-1.02,46l-1.03-7.83c.61,12.71-.02,46.88,2.6,59.33-.38,2.25-1.27,5.22-1.51-.38-.39,30.37,2.79,67.6,1.18,91.2l-.8-2.3c.23,5.67,1.5,9.86.7,16.96-.33-.37-.8-2.28-.84.34.28,3,1.4,15.05.93,22.56l-.9-6.42c-1.05,29.62,2.19,45.46,2.74,70.3-2.35-.06-3.12,23.24-3.5,34.88l-.33-.41c-.29,34.49,1.95,58.59,2.87,90.53-2.55,19.83-1.07,67.16-2.5,99.03.43-4.87,1.83.79,2.07,6.46-.48,7.48,1.63,20.67-.53,19.49l.04-2.67c-2.12,5.64-1.55,21-1.61,33l2.82,1.98c-1.5,11.5-1.7,25.61-1.53,39.71.14,7.05.28,14.1.42,20.82.07,3.36.13,6.64.2,9.79.03,4.2.05,8.24.07,12.07,5.63.01,11.01.03,16.12.04,3.41.03,6.62.07,9.63.12,6.01.11,11.16.3,15.24.57,13.49-.4,30.21-.39,43.58-.79l-.72.85c37.39.22,56.05.32,102.27.12l-9.42.61c26.07.05,32.91-2.45,56.96-2.5l7.23,1.27c45.48-.02,91.51,1.09,136.44-.06-.74.19-2.07.55-9.44.6,20.64.03,78.46.8,75.59-.71,5.33.84,47.79-.09,70.92-.57l-3.82.84c20.73-1.07,21.39-1.36,50.34-1.66,6.3.1,6.08.58-1.06.49,20.54.33,16.63-.81,43.49-.38l-10.33.53c23.52.06,21.65-.22,34.6-.84,14.79-.34,44.62.21,48.09.97,3.17-.46,16.05-1.08,29.91-.86,1.87.29-3.18.46-5.71.55,39.33.57,58.48-.97,85.52-.15.56.28,2.33.42,4.57.5-28.48-.02-51.9-.06-54.03-.11.35.76,25.08.9,5.14,1.95,20.26-.58,54.9-1.84,79.5-1.48,1.19.07,2.36.15,3.25.27l-2.55.09c5.68.08,10.76,0,15.55-.12,7.85.13,12.84.22,20.37.23,2.91.64,28.94.34,41.52.37-1.03-.84,15.1-.71.42-1.38.54.05-3.73.09-11.17.12-1.89.02-4.12.04-5.37.09.24-.02.54-.05.86-.07-8.26.01-19.04.03-31.28.06,9.94-.43,20.33-.79,34.24-.32,6.46-.54,13.57-1.1,17.57-1.36,17.22,1.18,50.41,1.81,55.04,2.54,38.42-.47,90.52-.31,114.68-1.9,10.93-.2,12.56.45,16.64.7-6.31.16-13.81.13-17.22.36,21.84-.41,64.72-.16,69.93-1.26,27.53.5-15.47,1.02,22.36.84l-5.11.34c73.03,1.74,119.26-2.65,198.92-.67-2.75-.08-4.37-.15-5.17-.27,94.07,1,193.85-.94,286.67.65,26.39.32,29.24-.39,45.35-.92l5.71.91,27.53-1.05c39.04-.77,67.61,2.22,117.03.78l-6.38-.61c17.75.11,56.23-.36,53.26.34,1.82-.11,5.82-.64,12.76-.32l.54.47,43.61-.81c33.8.34-5.29,1.88,44.04,1.97,18.34-.18,52.22-1.38,45.33-1.7-7.4-.02-18.91-.3-19.46-.77l16.62-.24s.01.04.02.06c-.31.14-.59.28-.59.41l.71-.09c.21.42.45.4.66-.08l2.68-.34-2.57.04c.02-.08.04-.16.06-.25h2.51v-.86c1.04-.39,1.5-.76,0-1.12v-109.29l.41,1.13-.41-3.34v-14.4c.32.44.59,1.8.72,4.64,1.1-10.45-.79-9.25.43-18.22.19-.99.3-.54.39.38l-.66-10.21c.47,2,1.57-1.7,1.25,4.57,1.28-18.32-1.67-29.54.02-36.44l.14,1.53c-.56-19.01-1.2-10.96-2.28-13.67v-11.89l2.76-8.79-1.63-2.5c.06-2.62.18-7.81.83-6.85-1.12-9.76-.71,1.66-1.76-4,1.49-12.62-.7-34.8,1.9-37.65-1.24-4.53-.96,12.07-1.82-1.4,2.8-3.84-.48-15.58.8-27.11,1.44,3.54.68,14.47,1.97,2.93-2.44-6.96.53-22.45.07-32.18-1.94-.46-.81-21.15-1.46-37.47.65,1.03,1.07-30.71,1.77-45.9l.33.45c-1.96-2.94-1.59-18.6-2-30.01,1.17.45,1.64,2.5,2.16,8.68v-10.72c-.64-2.53-.97-5.87-1.19-12.83l1.47,2.7c-.08-14.27-1.73-28.73-.75-47.09-.93-.7-2.35,6.23-3.45,4.76v-9.95c.46.33.88,1.4,1.03,4.02-.1-1.66-.61-5.93-.3-9.29l1.24,7.76c.55-8.36-1.04-4.37-.92-11.06,1.06.13.75-4.95,1.59-3.99.1,1.71-.44,5.83-.02,8.39.19-7.54.81-16.65,1.61-19.66-.6.66-1.42,0-1.56-5.52-.08-14.27,1.27-4.88,1.81-13.21-.73-3.46.03-12.56-1.55-12.8,0-4.18.74-4.95,1.17-6.56-.7-7.38-.2-34.49-1.88-26.17l-.11,1.89c-.02-.35-.04-.77-.07-1.21-1.57-24.2.89-50.28.22-74.3l.53.04c-.6-14.34-.36-31.91-1.49-42.15,0-4.24.96-10.01,1.59-8.19-.4-10.96-.99-12.19-.12-28.02.92,11.02.82-3.8.67,11.29.46-14.24,1.3-17.46-.14-32.75,1.35,5.2,1.7-10.72,1.3-17.49l-.97,9.98c-.2-7.61-.08-14.26.04-21.03l1.78,3.66c.48-6.48.57-12.67.45-18.62ZM894.44,854.81c.24-.03.74-.07.99-.1-.8.16-1.71.31-3.31.42-8.37.12-11.17-.05-12.32-.22,3.95-.03,8.57-.06,14.64-.1Zm1155.17-148.82c-.08.63-.16,1.09-.24,1.42v-6.13c.08,1.47.16,3.03.24,4.71Z"/>
<path class="cls-1" d="m1559.66,23.44c2.68,0,5.16-.03,7.45-.08-3.17.02-5.6.04-7.45.08Z"/>
<path class="cls-1" d="m904.77,25.44c.28-.02.44-.05.45-.07,0,0-.25.03-.45.07Z"/>
<path class="cls-1" d="m1425.76,25.16c-1.72.09-3.49.14-5.29.19,3.95-.08,8.98-.07,5.29-.19Z"/>
<path class="cls-1" d="m579.01,853.79c-.65-.01-1.33-.02-2.04-.04.74.02,1.41.03,2.04.04Z"/>
<path class="cls-1" d="m1419.29,25.38c.39,0,.78-.02,1.17-.03-.41,0-.8.02-1.17.03Z"/>
<path class="cls-1" d="m918.34,853.91c-.07,0-.2-.01-.42-.02.15,0,.28.01.42.02Z"/>
<path class="cls-1" d="m755.12,853.99s-.02-.01-.02-.02c-.21,0-.19.01.02.02Z"/>
<path class="cls-1" d="m907.17,854.03c1.21-.02,1.88-.05,3.45-.06-1.71-.06-3.34-.13-4.99-.19-1.02.09-2.06.18-2.96.26,1.52,0,3.09,0,4.51-.01Z"/>
<path class="cls-1" d="m2051.43,261.99c.03-.1.06-.22.08-.35-.02.08-.05.17-.08.35Z"/>
<path class="cls-1" d="m2051.64,260.67c-.04.36-.08.69-.13.97.03-.11.06-.18.1-.34l.03-.63Z"/>
<path class="cls-1" d="m2051.96,600.1l-.44,18.3c.58-3.2,1.36-7.41,1.5.92,1.73-23.07-1.3,4.76-1.06-19.22Z"/>
<path class="cls-1" d="m2052.8,543.35c.27,9.83.84-.12,1.17.41-.53-6.24-.66-7.75-1.17-.41Z"/>
<path class="cls-1" d="m2052.89,133.33l1.28.92c-.19-7.3-.51-.6-1.28-.92Z"/>
<path class="cls-1" d="m2052.89,133.33l-.09-.06s.06.05.09.06Z"/>
<polygon class="cls-1" points="2022.04 23.67 1999.52 23.95 2016.15 23.78 2022.04 23.67"/>
<path class="cls-1" d="m789.15,24.06l4.08.94c9.13-.17,11.04-1.23-4.08-.94Z"/>
<path class="cls-1" d="m259.45,25.02c-5.77-.47-20.67-.78-29.85-.31,11.91.06,23.79.43,29.85.31Z"/>
<polygon class="cls-1" points="17.78 792.35 17.88 787.06 17.31 781.08 17.78 792.35"/>
</svg>
