<svg viewBox="0 0 94 63" xmlns="http://www.w3.org/2000/svg">
<path d="M92.3999 20.2C91.0999 22.5 89.4999 24.6 87.5999 26.3C85.6999 28.1 83.7999 29.9 82.0999 31.9C79.8999 34.5 77.4999 37.1 75.0999 39.7C72.6999 42.2 70.1999 44.8 67.7999 47.5C66.4999 48.8 65.2999 50.1 63.9999 51.4C62.6999 52.7 61.4999 54 60.2999 55.3C59.5999 56.1 58.7999 56.6 57.7999 56.7C57.3999 57.2 56.9999 57.6 56.5999 58C56.1999 58.4 55.7999 58.9 55.2999 59.4C54.9999 60.3 54.4999 61.1 53.7999 61.8C53.1999 62.5 52.2999 62.9 51.0999 62.9C50.5999 63 49.5999 62.5 48.2999 61.4C46.8999 60.3 45.0999 58.7 42.5999 56.5C41.5999 55.4 40.5999 54.3 39.5999 53.3C38.5999 52.3 37.5999 51.3 36.5999 50.3C35.0999 48.6 34.3999 47.4 34.3999 46.6C31.5999 44.1 28.7999 41.6 25.9999 39.1C23.1999 36.6 20.3999 34.2 17.5999 31.8C14.8999 29.3 12.1999 26.7 9.3999 24C6.5999 21.4 3.7999 18.7 0.899902 15.9L15.2999 0C18.0999 2.1 20.9999 4.2 23.7999 6.4C26.5999 8.6 29.3999 10.7 31.9999 12.7C34.3999 14.7 36.4999 16.5 38.1999 18.1C39.8999 19.7 40.7999 20.5 40.6999 20.6L50.2999 29.2C54.1999 25.3 58.1999 21.5 62.0999 17.8C66.0999 14.1 69.9999 10.3 73.8999 6.4C74.4999 5.8 75.1999 5.2 75.8999 4.5C76.5999 3.8 77.4999 3.1 78.2999 2.2C79.1999 2.8 80.0999 3.2 80.8999 3.6C81.6999 4 82.3999 4.6 82.9999 5.2C84.5999 6.7 86.0999 8.2 87.4999 9.7C88.8999 11.2 90.3999 12.8 91.7999 14.5C92.7999 15.5 93.2999 16.3 93.3999 17C93.4999 17.8 93.1999 18.8 92.3999 20.2Z"/>
</svg>
