<svg  xmlns="http://www.w3.org/2000/svg">
<path d="M2002.5 87.6582V87.0582C2003.1 86.7582 2003.4 86.5582 2002.5 86.3582V3.1582H1968.7L1969.9 2.9582L1966.3 3.1582H1951C1951.5 3.0582 1952.9 2.9582 1955.9 2.8582C1944.8 2.4582 1946.1 3.1582 1936.5 2.6582C1935.4 2.5582 1935.9 2.5582 1936.9 2.5582L1926 2.7582C1928.1 2.5582 1924.2 2.1582 1930.9 2.2582C1911.4 1.7582 1899.5 2.8582 1892.2 2.2582L1893.8 2.1582C1873.6 2.3582 1882.1 2.5582 1879.3 3.0582H1866.7L1857.4 2.0582L1854.7 2.6582C1851.9 2.6582 1846.4 2.5582 1847.4 2.3582C1837 2.7582 1849.2 2.6582 1843.1 3.0582C1829.7 2.4582 1806.1 3.3582 1803.1 2.3582C1798.3 2.8582 1815.9 2.7582 1801.6 3.0582C1797.5 2.0582 1785 3.2582 1772.8 2.7582C1776.6 2.2582 1788.2 2.4582 1775.9 2.0582C1768.5 2.9582 1752 1.8582 1741.7 2.0582C1741.2 2.7582 1719.2 2.3582 1701.9 2.5582C1703 2.3582 1669.2 2.1582 1653.1 1.8582L1653.6 1.7582C1650.5 2.4582 1633.8 2.3582 1621.7 2.4582C1622.2 2.0582 1624.4 1.8582 1630.9 1.6582H1619.5C1616.8 1.8582 1613.3 2.0582 1605.9 2.0582L1608.8 1.5582C1593.6 1.5582 1578.3 2.1582 1558.7 1.8582C1558 2.1582 1565.3 2.7582 1563.8 3.1582H1553.2C1553.6 2.9582 1554.7 2.8582 1557.5 2.7582C1555.7 2.7582 1551.2 2.9582 1547.6 2.8582L1555.8 2.3582C1546.9 2.1582 1551.2 2.7582 1544 2.6582C1544.1 2.2582 1538.7 2.3582 1539.8 2.0582C1541.6 2.0582 1546 2.2582 1548.7 2.0582C1540.7 1.9582 1531 1.7582 1527.8 1.4582C1528.5 1.6582 1527.8 1.9582 1521.9 2.0582C1506.7 2.0582 1516.7 1.5582 1507.9 1.3582C1504.2 1.6582 1494.5 1.3582 1494.3 1.9582C1489.9 1.9582 1489 1.6582 1487.3 1.5582C1479.5 1.8582 1450.6 1.6582 1459.5 2.2582H1461.5C1461.1 2.2582 1460.7 2.2582 1460.2 2.2582C1434.5 2.8582 1406.7 1.9582 1381.2 2.1582V1.9582C1366 2.1582 1347.3 2.0582 1336.4 2.5582C1331.9 2.5582 1325.8 2.1582 1327.7 1.9582C1316 2.0582 1314.7 2.3582 1297.9 1.9582C1309.6 1.6582 1293.9 1.6582 1309.9 1.6582C1294.8 1.4582 1291.3 1.1582 1275.1 1.7582C1280.6 1.2582 1263.7 1.1582 1256.5 1.2582L1267.1 1.6582C1259 1.7582 1251.9 1.6582 1244.7 1.6582L1248.6 0.958202C1217.6 0.158202 1192.7 2.3582 1169.2 0.958202C1161 1.4582 1186 1.2582 1178.7 1.8582C1164.5 1.7582 1149.6 0.858203 1145.1 0.858203C1125.6 0.458203 1126.9 1.8582 1106.5 1.5582C1109.1 1.7582 1111.6 2.4582 1096.3 2.6582C1082 2.5582 1078.8 1.6582 1087.8 1.4582C1091.2 1.4582 1092.9 1.5582 1092.7 1.5582C1097.3 1.4582 1103.4 1.3582 1097.7 1.1582L1095.8 1.3582C1088.7 1.1582 1069.1 1.1582 1073.7 0.758203C1064.5 0.958203 1067.6 1.0582 1073.7 1.2582C1057.4 1.0582 1047.3 1.2582 1029.7 1.0582C1032.7 1.1582 1035.5 1.4582 1032.5 1.4582C1004.9 1.1582 1020.3 1.9582 1001.6 2.0582C991 1.6582 1005.4 1.1582 986.6 1.4582C975.1 1.2582 984.2 0.858203 988.7 0.658203C971.5 1.1582 956.6 0.358203 946.8 0.258203L955.8 0.0582028C950.4 0.158203 946 0.158203 941.5 0.158203L946.7 0.658203C941.4 0.558203 936.9 0.558203 937 0.358203C931.5 0.658203 941.2 1.1582 930.3 1.5582C923.2 1.3582 908.8 1.8582 906.3 1.1582C926.3 1.3582 908.3 0.658202 918.2 0.458202C915.6 0.458202 912.6 0.458203 909.3 0.358203C908.5 0.258203 910.1 0.258203 911.5 0.158203C890.2 -0.441797 901.7 0.858203 879.6 0.858203C882.4 0.458203 874.5 0.158203 870.9 0.258203C879.8 0.258203 875.2 0.858203 867 1.1582C852.9 0.858203 851.6 1.3582 844.2 1.3582L852.7 1.4582C849.8 1.8582 842.8 1.7582 832.9 1.8582C832.6 1.7582 833.4 1.7582 834.5 1.6582C824.2 1.8582 811.9 0.958203 798.3 1.2582C791.2 1.0582 797.6 0.558202 791.4 0.458202C774.3 0.958202 772.9 -0.041797 754.9 0.358203C760.1 0.858203 761 0.758203 748.3 1.1582L777.9 0.858203L758.9 1.5582C767.8 1.5582 777.7 1.2582 783.1 1.3582C774.1 1.7582 775 1.6582 779.3 2.0582C767.1 1.3582 755.1 2.4582 741 1.9582L741.4 0.758203C720.2 0.258203 703.7 1.3582 676.1 1.0582L685 1.2582C681.3 1.7582 668 1.3582 659.1 1.5582C659.9 1.1582 654.4 1.0582 650.5 0.758203C651 1.0582 630.3 0.758203 627.8 1.5582L615.5 1.0582C593.2 0.858203 590.1 2.1582 568.7 2.0582C575.1 1.6582 565.4 1.3582 579.8 1.0582C572.7 1.0582 566.2 0.958203 566.1 1.2582C561.9 1.0582 546.3 1.7582 539.7 1.4582C536.7 1.6582 535.7 2.0582 527.7 2.0582C527.2 2.0582 527.3 1.9582 527.5 1.9582C525.7 2.1582 515.8 2.2582 522.2 2.6582C500.2 1.4582 460.7 2.7582 441.6 1.6582C426 1.7582 407.2 1.9582 393.1 1.9582C394 1.8582 393.1 1.7582 395.8 1.7582C376.3 1.3582 383.8 2.8582 361.6 2.4582C350.3 1.8582 373.4 2.1582 366.3 1.8582C363.2 0.558203 339.5 2.0582 324.5 1.2582L328.1 1.1582C316.7 0.758203 300.2 1.6582 281.6 1.5582C281.6 1.5582 282.5 1.4582 281.7 1.3582C268.9 2.0582 244.8 2.2582 226.8 2.4582C232.4 1.9582 235 2.1582 231.5 1.6582C223.5 1.7582 233.9 2.4582 217.8 2.6582C212.6 2.3582 201 2.1582 199.4 1.5582H214.6C206.8 0.858203 195 1.5582 187 1.4582L188 1.1582C164.8 1.2582 164.5 2.0582 139.5 1.9582L142.1 2.1582C128.5 2.9582 130.7 1.7582 117.1 2.2582L113 1.4582C104 1.6582 81.5 2.2582 65.3 2.3582C74.4 1.7582 93.3 1.4582 105 1.1582C96.1 1.1582 74.7 1.2582 70 1.5582C73.6 1.4582 78.1 1.2582 81.7 1.4582C70.8 2.0582 56.3 2.3582 38.6 2.3582C39.6 1.8582 35 1.6582 27.9 1.5582C24.3 1.5582 20.2 1.4582 15.8 1.4582C10.9 1.4582 5.7 1.4582 0.6 1.3582C0.6 4.2582 0.6 7.1582 0.5 9.9582C0.5 12.1582 0.400001 14.3582 0.400001 16.3582C0.300001 20.3582 0.2 23.6582 0 25.8582C0.2 35.9582 0.2 45.9582 0.2 56.1582C0.0999998 67.0582 0.1 78.1582 0 89.6582C6.7 89.6582 13.5 89.7582 20.5 89.7582C26.7 89.7582 33.1 89.7582 39.7 89.7582C26.7 88.5582 50.4 89.7582 48.1 88.4582C56.6 88.3582 59.8 88.3582 60.6 88.4582L58.8 88.3582C59.6 88.3582 60 88.3582 60.7 88.4582L86.5 89.1582C92.6 89.5582 78.4 89.4582 79.2 89.6582C97.9 89.7582 87 90.1582 99.4 90.4582C96.9 90.0582 105.9 89.8582 116.6 89.9582L101.6 89.3582C127.7 88.6582 124.2 90.3582 150.5 89.7582L142.2 90.1582C155.7 89.9582 192 90.1582 205.3 89.1582C207.7 89.2582 210.8 89.6582 204.9 89.7582C237.2 89.8582 276.8 88.7582 301.9 89.3582L299.5 89.6582C305.5 89.5582 310 89.0582 317.5 89.3582C317.1 89.4582 315.1 89.6582 317.9 89.6582C321.1 89.5582 333.9 89.1582 341.9 89.3582L335.1 89.6582C366.6 90.0582 383.4 88.8582 409.8 88.6582C409.7 89.5582 434.5 89.8582 446.9 89.9582L446.5 90.0582C483.2 90.1582 508.8 89.3582 542.7 88.9582C563.8 89.9582 614.1 89.3582 648 89.8582C642.8 89.6582 648.8 89.1582 654.9 89.0582C662.8 89.2582 676.9 88.4582 675.6 89.2582H672.8C678.8 90.0582 695.1 89.8582 707.9 89.8582L710 88.7582C743.4 90.2582 797.4 88.1582 815.6 89.5582C823.6 89.2582 833.6 89.2582 841.6 89.0582L841.2 89.6582C863.5 89.7582 874.6 89.8582 902.2 89.7582L896.6 90.1582C912.2 90.1582 916.2 88.5582 930.6 88.4582L934.9 89.2582C962 89.2582 989.5 89.9582 1016.3 89.2582C1015.9 89.3582 1015.1 89.6582 1010.7 89.6582C1023 89.6582 1057.5 90.1582 1055.8 89.1582C1057.3 89.4582 1063.6 89.4582 1071.4 89.3582C1080.2 89.2582 1090.8 88.9582 1098.1 88.8582L1095.8 89.4582C1108.2 88.7582 1108.6 88.5582 1125.8 88.3582C1129.6 88.4582 1129.4 88.7582 1125.2 88.6582C1137.5 88.8582 1135.1 88.1582 1151.2 88.3582L1145 88.7582C1159 88.7582 1157.9 88.6582 1165.6 88.1582C1174.4 87.9582 1192.2 88.2582 1194.3 88.7582C1196.2 88.4582 1203.9 88.0582 1212.1 88.1582C1213.2 88.3582 1210.2 88.4582 1208.7 88.5582C1232.2 88.9582 1243.6 87.9582 1259.7 88.4582C1260 88.6582 1261.1 88.7582 1262.4 88.7582C1245.4 88.7582 1231.4 88.7582 1230.2 88.6582C1230.4 89.1582 1245.2 89.2582 1233.3 89.9582C1245.4 89.5582 1266.1 88.7582 1280.7 88.9582C1281.4 88.9582 1282.1 89.0582 1282.6 89.1582L1281.1 89.2582C1284.5 89.3582 1287.5 89.2582 1290.4 89.1582C1295.1 89.2582 1298.1 89.2582 1302.6 89.3582C1304.3 89.7582 1319.9 89.5582 1327.4 89.5582C1326.8 88.9582 1336.4 89.0582 1327.7 88.6582C1328 88.6582 1325.5 88.7582 1321 88.7582C1319.9 88.7582 1318.5 88.7582 1317.8 88.8582C1317.9 88.8582 1318.1 88.8582 1318.3 88.8582C1313.4 88.8582 1306.9 88.8582 1299.6 88.8582C1305.5 88.5582 1311.7 88.3582 1320 88.6582C1323.9 88.2582 1328.1 87.9582 1330.5 87.7582C1340.8 88.5582 1360.6 88.9582 1363.3 89.4582C1386.2 89.1582 1417.3 89.2582 1431.7 88.1582C1438.2 88.0582 1439.2 88.4582 1441.6 88.6582C1437.8 88.7582 1433.4 88.7582 1431.3 88.8582C1444.3 88.5582 1469.9 88.7582 1473 88.0582C1489.4 88.3582 1463.8 88.7582 1486.3 88.6582L1483.3 88.8582C1526.9 90.0582 1554.5 87.0582 1602 88.4582C1600.4 88.3582 1599.4 88.3582 1598.9 88.2582C1655 88.9582 1714.6 87.6582 1770 88.6582C1785.7 88.8582 1787.5 88.3582 1797.1 88.0582L1800.5 88.6582L1816.9 87.9582C1840.2 87.4582 1857.2 89.4582 1886.7 88.4582L1882.9 88.0582C1893.5 88.1582 1916.5 87.8582 1914.7 88.2582C1915.8 88.1582 1918.2 87.8582 1922.3 88.0582L1922.6 88.3582L1948.6 87.8582C1968.8 88.0582 1945.4 89.1582 1974.9 89.1582C1985.8 89.0582 2006.1 88.2582 2002 88.0582C2001.8 88.0582 2001.6 88.0582 2001.3 88.0582C2001.3 87.9582 2001.4 87.7582 2001.4 87.4582L2002.4 87.3582H2001.4C2001.4 87.3582 2001.4 87.2582 2001.4 87.1582H2002.5V87.6582ZM1313.3 89.8582C1313.4 89.8582 1313.7 89.7582 1313.9 89.7582C1313.4 89.8582 1312.9 89.9582 1311.9 90.0582C1306.9 90.1582 1305.2 90.0582 1304.5 89.9582C1306.9 89.9582 1309.7 89.8582 1313.3 89.8582ZM1932.2 3.1582C1932.9 3.1582 1933.4 3.2582 1933.7 3.2582H1927.2C1928.8 3.1582 1930.4 3.1582 1932.2 3.1582ZM2001.2 87.8582H2000.5C2000.3 87.9582 2000.1 88.0582 2000.1 88.1582L2001.2 87.9582C2001.2 88.1582 2001.3 88.3582 2001.3 88.4582C1996.9 88.4582 1990.8 88.2582 1990.5 87.9582L2000.5 87.7582C2000.6 87.6582 2000.8 87.6582 2000.9 87.5582H2001.2C2001.2 87.7582 2001.2 87.7582 2001.2 87.8582Z" fill="white"/>
</svg>
